<?xml version="1.0" encoding="UTF-8" standalone="no"?>
<!-- Created with Inkscape (http://www.inkscape.org/) -->

<svg
   width="191.18172mm"
   height="209.67929mm"
   id="svg3288"
   version="1.1"
   inkscape:version="1.2.2 (732a01da63, 2022-12-09)"
   sodipodi:docname="Stemma del Sestiere San Brancazio (Firenze).svg"
   xmlns:inkscape="http://www.inkscape.org/namespaces/inkscape"
   xmlns:sodipodi="http://sodipodi.sourceforge.net/DTD/sodipodi-0.dtd"
   xmlns="http://www.w3.org/2000/svg"
   xmlns:svg="http://www.w3.org/2000/svg"
   xmlns:rdf="http://www.w3.org/1999/02/22-rdf-syntax-ns#"
   xmlns:cc="http://creativecommons.org/ns#"
   xmlns:dc="http://purl.org/dc/elements/1.1/">
  <defs
     id="defs3290" />
  <sodipodi:namedview
     id="base"
     pagecolor="#ffffff"
     bordercolor="#666666"
     borderopacity="1.0"
     inkscape:pageopacity="0.0"
     inkscape:pageshadow="2"
     inkscape:zoom="0.49497475"
     inkscape:cx="-163.64471"
     inkscape:cy="708.11693"
     inkscape:document-units="pt"
     inkscape:current-layer="layer1"
     showgrid="false"
     inkscape:window-width="1920"
     inkscape:window-height="991"
     inkscape:window-x="-9"
     inkscape:window-y="-9"
     inkscape:window-maximized="1"
     inkscape:snap-global="false"
     inkscape:showpageshadow="2"
     inkscape:pagecheckerboard="0"
     inkscape:deskcolor="#d1d1d1" />
  <metadata
     id="metadata3293">
    <rdf:RDF>
      <cc:Work
         rdf:about="">
        <dc:format>image/svg+xml</dc:format>
        <dc:type
           rdf:resource="http://purl.org/dc/dcmitype/StillImage" />
      </cc:Work>
    </rdf:RDF>
  </metadata>
  <g
     inkscape:label="Layer 1"
     inkscape:groupmode="layer"
     id="layer1"
     transform="translate(-23.796464,-210.20308)">
    <g
       id="g5755"
       transform="translate(845.71428,-345.71429)">
      <g
         id="g5717">
        <path
           id="path83601"
           d="m -819.95128,557.88391 v 310.60012 c 0,130.7774 52.41459,231.23317 117.07434,305.41707 104.60242,120.7349 242.24743,172.4044 242.24743,172.4044 0,0 137.61257,-51.6695 242.24737,-172.4044 64.6274,-74.1839 117.07434,-174.63967 117.07434,-305.41707 V 557.88391 Z"
           style="fill:#f2f2f2;fill-opacity:1;fill-rule:nonzero;stroke:#000000;stroke-width:3.93307px;stroke-linecap:butt;stroke-linejoin:miter;stroke-miterlimit:4;stroke-dasharray:none;stroke-opacity:1"
           inkscape:connector-curvature="0" />
        <path
           inkscape:connector-curvature="0"
           style="fill:#f9f9f9;fill-opacity:1;fill-rule:nonzero;stroke:none;stroke-width:3.67076px;stroke-linecap:butt;stroke-linejoin:miter;stroke-miterlimit:4;stroke-dasharray:none;stroke-opacity:1"
           d="m -795.98711,584.24195 v 289.88537 c 0,122.05543 48.9189,215.81158 109.26636,285.04788 97.62618,112.6828 226.09124,160.9063 226.09124,160.9063 0,0 128.4348,-48.2235 226.09121,-160.9063 60.31721,-69.2363 109.26632,-162.99245 109.26632,-285.04788 V 584.24195 Z"
           id="path83603" />
        <path
           id="path83605"
           d="m -775.5518,606.66148 v 272.22089 c 0,114.61788 45.93799,202.66093 102.6081,267.67833 91.67724,105.8163 212.31419,151.1013 212.31419,151.1013 0,0 120.60851,-45.285 212.31414,-151.1013 56.64173,-65.0174 102.60808,-153.06045 102.60808,-267.67833 V 606.66148 Z"
           style="fill:#ffffff;fill-opacity:1;fill-rule:nonzero;stroke:none;stroke-width:3.44708px;stroke-linecap:butt;stroke-linejoin:miter;stroke-miterlimit:4;stroke-dasharray:none;stroke-opacity:1"
           inkscape:connector-curvature="0" />
      </g>
      <path
         inkscape:connector-curvature="0"
         style="fill:none;stroke:#333333;stroke-width:3.93307px;stroke-linecap:butt;stroke-linejoin:miter;stroke-miterlimit:4;stroke-dasharray:none;stroke-opacity:1"
         d="m -819.95128,557.88391 v 310.60012 c 0,130.7774 52.41459,231.23317 117.07434,305.41707 104.60242,120.7349 242.24743,172.4044 242.24743,172.4044 0,0 137.61257,-51.6695 242.24736,-172.4044 64.62741,-74.1839 117.07435,-174.63967 117.07435,-305.41707 V 557.88391 Z"
         id="path83609" />
      <g
         id="g5706">
        <path
           sodipodi:nodetypes="ccccccccccccccccccccccccccccc"
           inkscape:connector-curvature="0"
           id="path5654"
           d="m -625.33203,618.02149 c -8.98964,0.27454 -22.43032,10.09131 -25.0293,20.1836 -17.76865,-9.77974 -28.06961,-16.04199 -36.91992,-11.11524 -14.25914,7.95272 -24.01602,30.68405 -15.30078,46.12696 0,0 -27.52706,8.0601 -34.76563,22.91406 -8.9048,18.22005 -12.13201,44.96686 2.05078,59.49023 8.36852,8.56768 29.68712,12.02342 47.58008,17.30664 -16.87465,5.99806 -26.18823,9.52793 -30.74609,15.69727 -19.02027,25.7312 -0.15653,79.11401 35.17969,72.06445 14.07361,-2.79882 40.07152,-8.88128 64.82812,-9.03515 19.79325,-0.14798 38.59725,2.74936 49.26758,11.55859 -8.6659,19.08201 -33.85899,33.72758 -69.5957,21.43164 6.85734,19.79948 19.34989,32.32796 41.58789,42.0332 28.72873,12.52135 53.04859,-0.94028 89.96484,-4.80664 -4.46821,22.65616 -31.48442,43.65721 -72.24414,29.64258 6.87548,19.79865 19.34989,32.326 41.58789,42.03125 32.0487,13.97147 58.58385,-4.40765 103.25195,-5.71484 -4.28103,22.77491 -31.35829,44.03411 -72.30273,29.95511 6.87547,19.7986 19.34989,32.326 41.58789,42.0312 25.59428,11.1537 47.67605,1.6838 78.28906,-3.2617 -3.09249,27.7577 19.58289,47.1711 59.9375,53.8223 20.86176,45.9866 50.20674,73.2997 85.15352,85.8601 65.06295,-64.0501 114.44198,-170.3384 115.41114,-186.0589 -8.89008,-22.60512 -16.86781,-38.20078 -26.88106,-48.186 -74.15563,-73.94331 -185.30001,-129.12647 -270.57227,-177.45899 -27.0371,-15.32496 -41.0543,-47.9286 -67.36523,-64.48632 -26.34806,-16.57426 -87.41016,-32.87305 -87.41016,-32.87305 -8.26129,-29.55425 -16.49124,-59.18254 -43.00977,-68.65821 -1.05793,-0.37724 -2.25092,-0.53335 -3.53515,-0.49414 z"
           style="fill:none;fill-opacity:1;fill-rule:nonzero;stroke:#920000;stroke-width:6.86498;stroke-opacity:1" />
        <path
           sodipodi:nodetypes="cccccccccccccccccccccccccccc"
           d="m -124.79106,1013.7136 c -8.89007,-22.60504 -18.63489,-41.7369 -28.64814,-51.72213 -74.15563,-73.9433 -185.30065,-129.12611 -270.57292,-177.45863 -27.0371,-15.32496 -41.05419,-47.92847 -67.36513,-64.4862 -26.34805,-16.57425 -87.41078,-32.87243 -87.41078,-32.87243 -8.26129,-29.55425 -16.48957,-59.18272 -43.0081,-68.65839 -8.46348,-3.01795 -25.59543,8.15532 -28.56568,19.68937 -17.76866,-9.77974 -28.06947,-16.04202 -36.91978,-11.11527 -14.25914,7.95272 -24.01486,30.68391 -15.29963,46.12682 0,0 -27.52695,8.0607 -34.76552,22.91466 -8.9048,18.22005 -12.13388,44.96571 2.04892,59.48908 8.36851,8.56768 29.68807,12.02351 47.58103,17.30673 -16.87465,5.99805 -26.18803,9.52753 -30.74589,15.69687 -19.02026,25.7312 -0.15606,79.11583 35.18015,72.06627 14.07362,-2.79883 40.07167,-8.8815 64.82827,-9.03536 19.79324,-0.14798 38.59665,2.74868 49.26698,11.55791 -8.6659,19.08201 -33.85924,33.72826 -69.59595,21.43233 6.85734,19.79947 19.35003,32.32643 41.58803,42.03168 28.72873,12.52135 53.04827,-0.94 89.96452,-4.80635 -4.46821,22.65616 -31.48376,43.65735 -72.24349,29.64271 6.87549,19.79865 19.35003,32.32643 41.58803,42.03169 32.0487,13.97144 58.58261,-4.40799 103.25071,-5.71518 -4.28104,22.77492 -31.3577,44.03352 -72.30214,29.95442 6.87548,19.7987 19.35002,32.3265 41.58802,42.0317 25.59428,11.1538 47.67584,1.6843 78.28886,-3.2611 -3.09249,27.7576 19.5837,47.1703 59.93831,53.8215 20.86175,45.9866 52.22649,73.8049 87.17326,86.3653 65.06295,-64.0501 114.1889,-167.3074 115.15806,-183.028 z"
           id="path1626"
           inkscape:connector-curvature="0"
           style="fill:#cd0707;fill-opacity:1;fill-rule:nonzero;stroke:none;stroke-width:6.86498;stroke-opacity:1" />
        <path
           sodipodi:nodetypes="cccccccccccccccccccccccccccccccccc"
           d="m -198.044,1094.0413 c 0.67281,13.6968 -21.9905,48.3464 -22.52369,36.5341 -42.08452,104.3657 -75.93594,-49.2094 -112.52029,-48.4388 -23.95804,-8.3367 -24.18258,-39.0901 -29.74868,-55.257 -31.13827,-5.8853 -59.7396,17.042 -90.97755,13.3793 24.38117,-10.0823 55.84264,-51.01137 25.07645,-70.40437 -30.22339,-11.79933 -62.13709,3.80481 -92.93986,3.74068 10.55363,-13.5127 37.65387,-31.02682 33.02317,-55.47225 -11.70011,-30.81721 -52.05466,-14.10479 -76.51068,-12.52815 -8.74011,3.33997 -28.10146,1.77756 -9.93243,-5.35162 18.35268,-11.5193 48.53728,-38.84533 21.18711,-57.88342 -33.67714,-25.87975 -79.55855,-16.40874 -118.24463,-10.26251 -29.45527,16.09317 -38.12317,-31.73357 -7.88067,-36.02596 14.78395,-14.04908 28.64644,6.67055 41.42465,2.96649 -1.30391,-28.8865 -30.27892,-42.43308 -54.24797,-49.80564 -35.57833,-1.93948 -29.61299,-56.68128 -0.0247,-60.5623 25.12642,14.48395 48.18907,37.62465 78.63254,39.3959 29.58676,-6.7355 -20.13491,-22.7274 -27.924,-35.37576 -14.38314,-6.87801 -39.76637,-43.96846 -10.90337,-41.36222 15.80663,6.99556 35.53384,27.94138 47.67338,27.81159 2.03064,-13.4189 -30.1742,-39.71054 -6.19064,-41.68405 17.44552,17.12156 21.21458,43.42405 31.69559,64.15087 23.43985,11.76009 52.05656,13.34106 72.5253,31.38071 32.07953,18.27913 46.39068,57.39664 81.18391,72.15332 54.53849,30.86534 110.28007,59.78547 162.70687,94.21883 7.29815,29.97101 121.28716,90.10236 116.79701,126.30386 12.02557,13.4572 -31.2466,11.2103 -30.12553,34.0323 z m -63.3052,-59.9791 c -41.98538,7.1678 -91.34662,6.8141 -54.96777,-45.20958 -95.63346,-56.73752 -152.40499,-99.21109 -212.90147,-148.48015 0.43341,9.19858 2.46296,17.50694 6.3898,24.74783 71.26519,65.09199 135.90119,111.41058 184.25791,127.37318 -23.60805,66.68352 28.49385,82.64082 77.22153,41.56872 z"
           id="path1628"
           inkscape:connector-curvature="0"
           style="fill:#e94545;fill-opacity:1;fill-rule:nonzero;stroke-width:6.86498" />
        <path
           d="m -600.37155,683.91213 c 0,0 -10.32389,-1.134 -18.31981,-9.1003 -7.93821,-7.89619 -16.92499,-20.09048 -22.06393,-25.58577 -5.34835,-5.70401 -9.66664,-8.72726 -12.55688,-10.32408 -2.89025,-1.5968 -3.98548,-1.6928 -3.98548,-1.6928 l 0.94296,-6.09709 c 0,0 2.51122,0.45028 6.01662,2.38295 3.50542,1.93267 8.35222,5.3866 14.10128,11.50888 5.75069,6.15858 14.58247,18.14172 21.89324,25.42985 7.08157,7.04395 13.972,13.47836 13.972,13.47836 z m -4.92638,37.07678 c -9.64017,6.76239 -23.21033,0.57495 -31.23076,-5.51752 -6.9856,-5.32103 -14.67049,-13.64683 -22.58401,-21.39868 -7.91269,-7.73371 -16.08951,-14.87369 -22.96536,-17.76331 -8.17385,-3.44921 -19.53898,-0.66347 -19.53898,-0.66347 l -1.61462,-5.96346 c 0,0 12.59675,-3.69586 23.55128,0.93692 8.48886,3.58044 16.83048,11.14933 24.8949,19.02164 8.04708,7.89128 15.97124,15.87901 22.01756,20.93334 8.38799,6.98498 19.15679,9.51706 27.46999,10.41454 z m -43.13284,70.76489 c 0.055,0.8157 0.0564,1.65199 0.0232,2.52621 -5.08055,-10.24336 -12.61157,-14.75793 -21.4959,-17.02962 -8.88351,-2.25354 -18.71143,-1.66446 -23.49837,-1.37566 l -0.36918,-6.16514 c 4.7325,-0.28635 15.22604,-1.03275 25.3977,1.56265 9.52759,2.42447 19.17368,8.27994 19.94263,20.48156 z"
           id="path1630"
           inkscape:connector-curvature="0"
           style="fill:#920000;fill-opacity:1;fill-rule:nonzero;stroke-width:6.86498" />
        <path
           style="fill:#c0190d;fill-rule:nonzero;stroke:#800000;stroke-width:4"
           inkscape:connector-curvature="0"
           id="path1632"
           d="m -701.57229,661.86406 c -17.05162,-10.81208 -30.80271,-18.59134 -51.33794,-21.99166 14.80689,-13.54104 40.41472,-27.06054 63.43376,-17.37237 12.11599,6.59853 16.44094,14.60327 14.0411,21.85703 -2.38087,7.27107 -11.46756,13.80849 -26.13692,17.507 z" />
        <path
           style="fill:#dd152e;fill-rule:nonzero;stroke-width:6.86498"
           inkscape:connector-curvature="0"
           id="path1634"
           d="m -734.09996,634.05971 c 14.74308,-7.30182 33.72529,-11.72229 48.50427,-2.11671 14.29456,10.55472 -0.42004,16.47345 -11.82044,21.29712 -11.57794,-7.56826 -23.95218,-13.84603 -36.68383,-19.18041 z" />
        <g
           style="fill-rule:nonzero;stroke-width:3.7796"
           id="g1640"
           transform="matrix(0.00681507,-1.8163126,-1.8163126,-0.00681507,2985.7579,6007.5593)">
          <path
             style="fill:#c0190d;stroke:#800000;stroke-width:2.20225"
             inkscape:connector-curvature="0"
             id="path1636"
             d="m 2904.7,2064 c 6.37,9.11 10.99,16.48 13.37,27.69 7.08,-8.48 13.88,-22.9 7.98,-35.32 -3.93,-6.5 -8.44,-8.68 -12.37,-7.18 -3.94,1.49 -7.31,6.65 -8.98,14.81 z" />
          <path
             style="fill:#dd152e"
             inkscape:connector-curvature="0"
             id="path1638"
             d="m 2920.8,2081.2 c 3.65,-8.29 5.61,-18.84 -0.04,-26.73 -6.16,-7.6 -9.05,0.64 -11.42,7.03 4.45,6.18 8.21,12.83 11.46,19.7 z" />
        </g>
        <g
           style="fill-rule:nonzero;stroke-width:4.6877"
           id="g1646"
           transform="matrix(0.53438611,-1.3634692,-1.3634692,-0.53438611,613.7227,5702.1047)"
           inkscape:transform-center-x="17.617814"
           inkscape:transform-center-y="-13.105997">
          <path
             style="fill:#c0190d;stroke:#800000;stroke-width:2.7314"
             inkscape:connector-curvature="0"
             id="path1642"
             d="m 2905.5,2062.7 c 6.37,9.11 10.99,16.48 13.37,27.69 7.08,-8.48 13.88,-22.89 7.98,-35.32 -3.93,-6.5 -8.44,-8.67 -12.37,-7.18 -3.94,1.5 -7.31,6.65 -8.98,14.81 z" />
          <path
             style="fill:#dd152e"
             inkscape:connector-curvature="0"
             id="path1644"
             d="m 2921.7,2080 c 3.65,-8.3 5.61,-18.84 -0.04,-26.74 -6.16,-7.6 -9.05,0.64 -11.42,7.03 4.45,6.18 8.21,12.83 11.46,19.71 z" />
        </g>
        <g
           style="fill-rule:nonzero;stroke-width:3.7796"
           id="g1652"
           transform="matrix(-0.93240002,1.5587363,-1.5587363,-0.93240002,5206.0549,-1799.4483)">
          <path
             style="fill:#c0190d;stroke:#800000;stroke-width:2.20225"
             inkscape:connector-curvature="0"
             id="path1648"
             d="m 2904.7,2064 c 6.37,9.11 10.99,16.48 13.37,27.69 7.08,-8.48 13.88,-22.9 7.98,-35.32 -3.93,-6.5 -8.44,-8.68 -12.37,-7.18 -3.94,1.49 -7.31,6.65 -8.98,14.81 z" />
          <path
             style="fill:#dd152e"
             inkscape:connector-curvature="0"
             id="path1650"
             d="m 2920.8,2081.2 c 3.65,-8.29 5.61,-18.84 -0.04,-26.73 -6.16,-7.6 -9.05,0.64 -11.42,7.03 4.45,6.18 8.21,12.83 11.46,19.7 z" />
        </g>
        <path
           d="m -267.20254,963.59937 c -13.33779,-0.23431 -23.22922,-2.26054 -48.96847,-16.62591 0,0 -104.92994,-75.39054 -165.96242,-119.61723 -12.81949,-9.29404 -21.65599,-14.13151 -36.3264,-20.12381 -23.61865,-9.6793 -75.76644,-10.94357 -75.76644,-10.94357 -6.48972,-11.25247 -11.45477,-24.17376 -14.89434,-38.74572 0,0 18.98202,-11.67496 22.92737,-21.34393 3.30651,-8.11286 -1.18433,-26.23735 -1.18433,-26.23735 0,0 15.56193,8.82479 23.30824,13.27511 20.47651,11.76656 43.29551,20.2456 61.34699,35.48527 15.63147,13.18526 23.39895,34.21638 39.16739,47.21364 57.46364,47.33324 178.00407,95.1647 178.00407,95.1647 -12.65956,27.68041 -6.37216,44.92382 18.36648,62.49798 z M -599.3174,699.20994 c 0.0855,3.50522 -4.28419,6.59335 -7.75243,7.09536 -7.35297,1.041 -14.04544,-5.4387 -19.99213,-9.89754 -5.87085,-4.38952 -11.91798,-9.46198 -14.89321,-16.16402 -2.00355,-4.50954 -5.5896,-12.25674 -1.33888,-14.75769 6.4986,-3.85696 12.74728,8.0973 18.76985,12.62542 8.76996,6.58592 24.9851,10.14489 25.2068,21.09847 z m -20.3566,50.10051 c 0.4172,5.61751 -3.93843,13.85044 -8.47084,12.52777 -11.53555,-3.40655 -40.85348,-14.88313 -54.63343,-30.55196 -3.1255,-3.58618 -7.6104,-9.0928 -5.30722,-13.2513 2.52187,-4.55017 10.25362,-3.64464 15.36844,-2.71189 19.77968,3.57988 46.51923,23.59098 51.93067,30.69215 0.65705,0.86125 1.01794,2.00859 1.11238,3.29523 z"
           id="path1656"
           inkscape:connector-curvature="0"
           style="fill:#ff6666;fill-opacity:1;fill-rule:nonzero;stroke-width:6.86498" />
        <path
           style="fill:#cd0707;fill-opacity:1;stroke:none;stroke-width:1px;stroke-linecap:butt;stroke-linejoin:miter;stroke-opacity:1"
           d="m -264.65997,1034.6364 c -19.3425,64.9239 -2.02387,129.8962 59.599,51.5178 -32.27091,17.1785 -61.75737,26.6463 -59.599,-51.5178 z"
           id="path5659"
           inkscape:connector-curvature="0"
           sodipodi:nodetypes="ccc" />
      </g>
      <g
         id="g5725">
        <path
           inkscape:connector-curvature="0"
           style="fill:none;fill-opacity:1;fill-rule:nonzero;stroke:#000000;stroke-width:3.93307px;stroke-linecap:butt;stroke-linejoin:miter;stroke-miterlimit:4;stroke-dasharray:none;stroke-opacity:1"
           d="m -819.95128,557.88391 v 310.60012 c 0,130.7774 52.41459,231.23317 117.07434,305.41707 104.60242,120.7349 242.24743,172.4044 242.24743,172.4044 0,0 137.61257,-51.6695 242.24737,-172.4044 64.6274,-74.1839 117.07434,-174.63967 117.07434,-305.41707 V 557.88391 Z"
           id="path5719" />
      </g>
      <path
         id="path5727"
         d="m -819.95128,557.88391 v 310.60012 c 0,130.7774 52.41459,231.23317 117.07434,305.41707 104.60242,120.7349 242.24743,172.4044 242.24743,172.4044 0,0 137.61257,-51.6695 242.24736,-172.4044 64.62741,-74.1839 117.07435,-174.63967 117.07435,-305.41707 V 557.88391 Z"
         style="fill:none;stroke:#333333;stroke-width:3.93307px;stroke-linecap:butt;stroke-linejoin:miter;stroke-miterlimit:4;stroke-dasharray:none;stroke-opacity:1"
         inkscape:connector-curvature="0" />
    </g>
  </g>
</svg>
